# xmcd
#
# Track frame offsets:
#	150
#	8201
#	31733
#	35385
#	61798
#	95278
#	127694
#	154814
#	186259
#	212303
#	234287
#
# Disc length: 3395 seconds
#
# Revision: 1
# Processed by: cddbd v1.4PL0 Copyright (c) Steve Scherf et al.
# Submitted via: audiograbber 1.82.01
#
DISCID=750d410b
DTITLE=John Mayall and the Bluesbreakers - 1982-01-16 - The Keystone - Berkeley
DTITLE=, CA - Set 1
DYEAR=1900
DGENRE=
TTITLE0=John Mayall - intro
TTITLE1=John Mayall - An Eye For An Eye
TTITLE2=John Mayall - band introduction
TTITLE3=John Mayall - Rocket In The Pocket
TTITLE4=John Mayall - Have You Heard
TTITLE5=John Mayall - Oh, Pretty Woman
TTITLE6=John Mayall - Checkin' Up On My Baby
TTITLE7=John Mayall - My Time After Awhile
TTITLE8=John Mayall - Walking On Sunset
TTITLE9=John Mayall - Road Show
TTITLE10=John Mayall - Room To Move
EXTD=
EXTT0=
EXTT1=
EXTT2=
EXTT3=
EXTT4=
EXTT5=
EXTT6=
EXTT7=
EXTT8=
EXTT9=
EXTT10=
PLAYORDER=
